<svg width="70" height="70" viewBox="0 0 70 70" fill="none" xmlns="http://www.w3.org/2000/svg">
<path d="M15.925 53.9292V45.4126C15.925 42.5834 18.1417 40.0459 21.2917 40.0459C24.1208 40.0459 26.6583 42.2626 26.6583 45.4126V53.6084C26.6583 59.2959 21.9333 64.0209 16.2458 64.0209C10.5583 64.0209 5.83332 59.2667 5.83332 53.6084V35.6417C5.51249 19.2501 18.4625 5.97925 34.8542 5.97925C51.2458 5.97925 64.1666 19.2501 64.1666 35.3209V53.2876C64.1666 58.9751 59.4417 63.7001 53.7542 63.7001C48.0667 63.7001 43.3417 58.9751 43.3417 53.2876V45.0917C43.3417 42.2626 45.5583 39.7251 48.7083 39.7251C51.5375 39.7251 54.075 41.9417 54.075 45.0917V53.9292" stroke="#292D32" stroke-width="1.5" stroke-linecap="round" stroke-linejoin="round"/>
</svg>
