<svg width="59" height="37" viewBox="0 0 59 37" fill="none" xmlns="http://www.w3.org/2000/svg">
<g id="Mastercard svg" clip-path="url(#clip0_205_746)">
<g id="Group">
<g id="Group_2">
<path id="Vector" d="M37.4764 3.89551H21.5236V32.5255H37.4764V3.89551Z" fill="#FF5F00"/>
<path id="Vector_2" d="M22.5296 18.2033C22.5296 12.6392 25.1124 7.328 29.4678 3.88836C21.5673 -2.33335 10.1218 -0.967608 3.89265 6.97392C-2.33654 14.8649 -0.969156 26.2966 6.98192 32.5183C13.6163 37.7284 22.8841 37.7284 29.5184 32.5183C25.1124 29.0787 22.5296 23.7675 22.5296 18.2033Z" fill="#EB001B"/>
<path id="Vector_3" d="M59 18.2102C59 28.2762 50.8464 36.4201 40.7682 36.4201C36.6661 36.4201 32.7159 35.0543 29.5253 32.5252C37.4258 26.3035 38.7931 14.8717 32.564 6.93017C31.6524 5.81735 30.6395 4.75511 29.5253 3.89519C37.4258 -2.32651 48.9219 -0.960773 55.1004 6.98076C57.6326 10.1675 59 14.113 59 18.2102Z" fill="#F79E1B"/>
<path id="Vector_4" d="M57.2781 29.4904V28.8834H57.5314V28.7822H56.9236V28.8834H57.1769V29.4904H57.2781ZM58.443 29.4904V28.7822H58.2404L58.0378 29.2881L57.8352 28.7822H57.6327V29.4904H57.7846V28.934L57.9872 29.3892H58.1391L58.3417 28.934V29.4904H58.443Z" fill="#F79E1B"/>
</g>
</g>
</g>
<defs>
<clipPath id="clip0_205_746">
<rect width="59" height="36.4197" fill="white"/>
</clipPath>
</defs>
</svg>
