<svg width="120" height="32" viewBox="0 0 120 32" fill="none" xmlns="http://www.w3.org/2000/svg">
<g id="PayPal svg">
<path id="Vector" d="M104.687 7.89758L102.126 23.9478C102.117 24.0067 102.12 24.067 102.136 24.1245C102.153 24.1819 102.181 24.2352 102.22 24.2804C102.259 24.3257 102.308 24.3619 102.363 24.3865C102.417 24.4111 102.476 24.4234 102.536 24.4228H105.567C105.674 24.4237 105.777 24.3864 105.859 24.3176C105.941 24.2488 105.995 24.153 106.012 24.0477L108.573 7.99755C108.583 7.93861 108.579 7.8783 108.563 7.82083C108.547 7.76336 108.518 7.71013 108.479 7.66488C108.44 7.61962 108.392 7.58343 108.337 7.55884C108.283 7.53426 108.223 7.52187 108.163 7.52255H105.133C105.026 7.52043 104.921 7.55732 104.839 7.62633C104.757 7.69535 104.703 7.79176 104.687 7.89758ZM101.451 12.5814H98.5755C98.4687 12.5804 98.3651 12.6176 98.2835 12.6863C98.2018 12.755 98.1476 12.8506 98.1306 12.9558L98.0355 13.5467C98.0355 13.5467 95.8021 11.1309 91.8479 12.7635C89.5794 13.6982 88.4904 15.6295 88.027 17.0443C88.027 17.0443 86.5564 21.3441 89.8826 23.7109C89.8826 23.7109 92.9668 25.9872 96.4398 23.5708L96.3798 23.9478C96.3659 24.0363 96.3815 24.127 96.4241 24.2058C96.4668 24.2847 96.5342 24.3475 96.616 24.3846C96.6702 24.41 96.7296 24.4228 96.7896 24.4228H99.667C99.7743 24.4249 99.8786 24.388 99.9606 24.319C100.043 24.25 100.097 24.1535 100.113 24.0477L101.863 13.0564C101.873 12.9975 101.869 12.9372 101.853 12.8799C101.836 12.8225 101.807 12.7695 101.768 12.7247C101.729 12.679 101.68 12.6425 101.625 12.6176C101.571 12.5927 101.511 12.5808 101.451 12.5814ZM97.2198 18.6559C97.1076 19.4238 96.7184 20.1245 96.1251 20.6265C95.5293 21.1304 94.771 21.4025 93.99 21.3925C93.6837 21.3961 93.3788 21.3518 93.0862 21.2614C91.8447 20.8666 91.1362 19.6861 91.3398 18.4063C91.4529 17.6387 91.8425 16.9385 92.4357 16.4368C93.031 15.9327 93.7887 15.6598 94.5696 15.6683C94.8759 15.6651 95.1809 15.7098 95.4734 15.8007C96.7226 16.193 97.4279 17.3754 97.223 18.6565H97.2198V18.6559ZM81.8649 18.9596C83.4243 18.9596 84.9326 18.4069 86.1172 17.4021C87.2995 16.4007 88.0822 15.0094 88.3232 13.4811C88.8268 10.3019 86.3189 7.527 82.7636 7.527H77.0362C76.9293 7.52598 76.8256 7.56328 76.7439 7.63211C76.6623 7.70094 76.6081 7.79673 76.5913 7.90204L74.0298 23.9522C74.0159 24.0408 74.0315 24.1314 74.0741 24.2103C74.1168 24.2892 74.1841 24.352 74.266 24.389C74.3209 24.4145 74.3796 24.4272 74.4396 24.4272H77.4721C77.579 24.4282 77.6827 24.3909 77.7644 24.3221C77.846 24.2533 77.9002 24.1575 77.917 24.0522L78.6689 19.3391C78.6847 19.2331 78.7387 19.1366 78.8207 19.0674C78.9027 18.9983 79.0071 18.9613 79.1145 18.9634L81.8649 18.9596ZM84.4015 13.3366C84.2145 14.512 83.2966 15.3773 81.5406 15.3773H79.2957L79.9774 11.1029H82.1821C83.9974 11.1061 84.5885 12.1663 84.4015 13.3398V13.3366Z" fill="#0070E0"/>
<path id="Vector_2" d="M70.5747 12.8537L67.1062 18.6511L65.3458 12.8963C65.3182 12.8045 65.2615 12.7241 65.1841 12.6672C65.1067 12.6104 65.0129 12.5801 64.9168 12.5811H61.7866C61.7056 12.58 61.627 12.6082 61.5652 12.6604C61.5034 12.7126 61.4625 12.7853 61.4502 12.8651C61.4426 12.9181 61.4481 12.972 61.4662 13.0224L64.6207 22.716L61.7675 27.284C61.7432 27.3216 61.727 27.3637 61.7196 27.4078C61.7123 27.4519 61.7141 27.497 61.7248 27.5404C61.7356 27.5838 61.7551 27.6246 61.7822 27.6602C61.8093 27.6958 61.8434 27.7255 61.8824 27.7475C61.9346 27.7774 61.9939 27.7928 62.0541 27.7921H65.4255C65.5218 27.7924 65.6164 27.768 65.7004 27.7211C65.7844 27.6743 65.8548 27.6066 65.9049 27.5247L74.716 13.0918C74.7479 13.0415 74.7654 12.9835 74.7667 12.924C74.7679 12.8645 74.7528 12.8059 74.723 12.7543C74.6932 12.7026 74.6501 12.6598 74.5981 12.6304C74.5462 12.6009 74.4872 12.5859 74.4275 12.5869H71.0572C70.9606 12.586 70.8653 12.6101 70.7807 12.6568C70.6962 12.7036 70.6252 12.7714 70.5747 12.8537ZM60.0121 12.5811H57.1341C57.027 12.5801 56.9231 12.6175 56.8413 12.6864C56.7596 12.7554 56.7053 12.8513 56.6885 12.9568L56.5953 13.5471C56.5953 13.5471 54.36 11.1313 50.4058 12.7639C48.1379 13.6986 47.0483 15.6298 46.5868 17.0446C46.5868 17.0446 45.1149 21.3445 48.4404 23.7113C48.4404 23.7113 51.5253 25.9876 54.9983 23.5712L54.9383 23.9481C54.9242 24.0367 54.9397 24.1274 54.9823 24.2064C55.025 24.2853 55.0925 24.348 55.1745 24.3849C55.2287 24.4104 55.2881 24.4231 55.3481 24.4231H58.2255C58.3324 24.4239 58.4359 24.3865 58.5175 24.3177C58.5991 24.2489 58.6534 24.1533 58.6704 24.0481L60.4213 13.0568C60.4356 12.9681 60.4202 12.8772 60.3775 12.7982C60.3348 12.7191 60.2672 12.6562 60.1851 12.6193C60.1307 12.5943 60.0721 12.5813 60.0121 12.5811ZM55.7802 18.6568C55.6669 19.4239 55.2776 20.1235 54.6849 20.625C54.0894 21.1288 53.3318 21.4014 52.5511 21.3929C52.2452 21.3963 51.9407 21.352 51.6485 21.2617C50.4077 20.867 49.6998 19.6865 49.9034 18.406C50.0168 17.6367 50.4079 16.9353 51.0032 16.4334C51.6008 15.9293 52.3609 15.6577 53.1434 15.6687C53.4498 15.6655 53.7555 15.71 54.0479 15.8011C55.2843 16.1933 55.9883 17.3751 55.784 18.6568H55.7802ZM40.426 18.9599C41.9827 18.9591 43.4885 18.4065 44.6745 17.4006C45.8556 16.3992 46.6374 15.0084 46.8779 13.4808C47.3821 10.3023 44.8736 7.52737 41.3196 7.52737H35.5915C35.4846 7.5263 35.3809 7.56348 35.2991 7.63218C35.2174 7.70087 35.1631 7.79652 35.146 7.90177L32.5928 23.9475C32.5785 24.0361 32.5939 24.127 32.6366 24.2061C32.6793 24.2852 32.7469 24.348 32.8289 24.3849C32.8832 24.4097 32.9426 24.4231 33.0026 24.4231H36.0332C36.1403 24.4241 36.2441 24.3868 36.3259 24.3178C36.4077 24.2489 36.4619 24.1529 36.4787 24.0474L37.2294 19.3343C37.2453 19.2285 37.2993 19.1321 37.3813 19.0631C37.4633 18.9941 37.5676 18.9572 37.6749 18.9593L40.426 18.9599ZM42.9626 13.3363C42.7755 14.5117 41.8583 15.377 40.1023 15.377H37.8574L38.5379 11.1026H40.7426C42.5585 11.1058 43.1489 12.1666 42.9626 13.3395V13.3363Z" fill="#003087"/>
<path id="Vector_3" d="M20.8334 8.35179C20.9017 4.80773 17.9713 2.08887 13.9417 2.08887H5.60684C5.41261 2.08878 5.22473 2.15788 5.07704 2.28372C4.92936 2.40956 4.83158 2.58388 4.80131 2.77527L1.46173 23.592C1.44679 23.6864 1.45252 23.7828 1.47853 23.8747C1.50453 23.9666 1.5502 24.0518 1.61238 24.1245C1.67456 24.1971 1.75178 24.2554 1.83872 24.2954C1.92566 24.3354 2.02025 24.3561 2.11599 24.3561H7.05386L6.28216 29.1762C6.26722 29.2705 6.27295 29.367 6.29895 29.4589C6.32496 29.5508 6.37063 29.636 6.43281 29.7086C6.49499 29.7812 6.5722 29.8396 6.65914 29.8795C6.74608 29.9195 6.84068 29.9403 6.93641 29.9403H10.959C11.153 29.9403 11.326 29.8709 11.4741 29.7454C11.6209 29.6194 11.6451 29.4455 11.6758 29.2539L12.8566 22.3237C12.8866 22.1326 12.9843 21.8843 13.1317 21.7582C13.2792 21.6322 13.4081 21.5634 13.6028 21.5634H16.0641C20.0107 21.5634 23.3585 18.765 23.9707 14.8732C24.4041 12.1111 23.2168 9.59788 20.8334 8.35179Z" fill="#001C64"/>
<path id="Vector_4" d="M8.12236 16.6794L6.89236 24.459L6.12002 29.339C6.10517 29.4333 6.11099 29.5297 6.13708 29.6216C6.16317 29.7135 6.20891 29.7987 6.27115 29.8712C6.33339 29.9438 6.41065 30.002 6.49762 30.0419C6.58458 30.0818 6.67918 30.1025 6.77491 30.1024H11.0324C11.2264 30.1023 11.414 30.0331 11.5615 29.9073C11.7089 29.7815 11.8065 29.6073 11.8366 29.416L12.9587 22.3234C12.989 22.1322 13.0867 21.9579 13.2342 21.8321C13.3818 21.7063 13.5695 21.6371 13.7636 21.637H16.2696C20.2162 21.637 23.5641 18.7654 24.1768 14.8736C24.6109 12.1115 23.2168 9.59765 20.8334 8.35156C20.827 8.64573 20.8015 8.93927 20.7562 9.23026C20.1441 13.1207 16.7949 15.993 12.8496 15.993H8.92725C8.73307 15.9932 8.54534 16.0625 8.3978 16.1885C8.25026 16.3144 8.1526 16.4881 8.12236 16.6794Z" fill="#0070E0"/>
<path id="Vector_5" d="M6.89171 24.4589H1.93852C1.8428 24.4589 1.74822 24.4381 1.66131 24.3981C1.57439 24.3581 1.49721 24.2998 1.43508 24.2272C1.37295 24.1546 1.32734 24.0693 1.30142 23.9774C1.27549 23.8855 1.26986 23.7891 1.2849 23.6948L4.62448 2.56921C4.65473 2.37793 4.75242 2.2037 4.89997 2.07787C5.04752 1.95204 5.23525 1.88287 5.42937 1.88281H13.9417C17.9713 1.88281 20.9017 4.80797 20.8334 8.3514C19.8307 7.82673 18.6524 7.52683 17.3617 7.52683H10.2651C10.0709 7.52674 9.88301 7.59583 9.73532 7.72168C9.58764 7.84752 9.48985 8.02184 9.45958 8.21323L8.12299 16.6792L6.89107 24.4589H6.89171Z" fill="#003087"/>
</g>
</svg>
