<svg width="70" height="70" viewBox="0 0 70 70" fill="none" xmlns="http://www.w3.org/2000/svg">
<g opacity="0.7">
<path d="M43.75 5.83325V34.9999C43.75 38.2083 41.125 40.8333 37.9167 40.8333H5.83333V17.4999C5.83333 11.0541 11.0542 5.83325 17.5 5.83325H43.75Z" stroke="#292D32" stroke-width="1.5" stroke-linecap="round" stroke-linejoin="round"/>
<path d="M64.1667 40.8333V49.5833C64.1667 54.4249 60.2583 58.3333 55.4167 58.3333H52.5C52.5 55.1249 49.875 52.4999 46.6667 52.4999C43.4583 52.4999 40.8333 55.1249 40.8333 58.3333H29.1667C29.1667 55.1249 26.5417 52.4999 23.3333 52.4999C20.125 52.4999 17.5 55.1249 17.5 58.3333H14.5833C9.74167 58.3333 5.83333 54.4249 5.83333 49.5833V40.8333H37.9167C41.125 40.8333 43.75 38.2083 43.75 34.9999V14.5833H49.1167C51.2167 14.5833 53.1416 15.7208 54.1916 17.5291L59.1792 26.2499H55.4167C53.8125 26.2499 52.5 27.5624 52.5 29.1666V37.9166C52.5 39.5208 53.8125 40.8333 55.4167 40.8333H64.1667Z" stroke="#292D32" stroke-width="1.5" stroke-linecap="round" stroke-linejoin="round"/>
<path d="M23.3333 64.1667C26.555 64.1667 29.1667 61.555 29.1667 58.3333C29.1667 55.1117 26.555 52.5 23.3333 52.5C20.1117 52.5 17.5 55.1117 17.5 58.3333C17.5 61.555 20.1117 64.1667 23.3333 64.1667Z" stroke="#292D32" stroke-width="1.5" stroke-linecap="round" stroke-linejoin="round"/>
<path d="M46.6667 64.1667C49.8883 64.1667 52.5 61.555 52.5 58.3333C52.5 55.1117 49.8883 52.5 46.6667 52.5C43.445 52.5 40.8333 55.1117 40.8333 58.3333C40.8333 61.555 43.445 64.1667 46.6667 64.1667Z" stroke="#292D32" stroke-width="1.5" stroke-linecap="round" stroke-linejoin="round"/>
<path d="M64.1667 35V40.8333H55.4167C53.8125 40.8333 52.5 39.5208 52.5 37.9167V29.1667C52.5 27.5625 53.8125 26.25 55.4167 26.25H59.1792L64.1667 35Z" stroke="#292D32" stroke-width="1.5" stroke-linecap="round" stroke-linejoin="round"/>
</g>
</svg>
