<svg width="62" height="21" viewBox="0 0 62 21" fill="none" xmlns="http://www.w3.org/2000/svg">
<g id="Visa Inc. svg" clip-path="url(#clip0_205_744)">
<path id="path3789" d="M40.3957 0.186523C35.9992 0.186523 32.0519 2.4742 32.0519 6.6722C32.0519 11.507 39.0248 11.8372 39.0248 14.2428C39.0248 15.2569 37.8429 16.1767 35.8574 16.1767C33.021 16.1767 30.8936 14.9031 30.8936 14.9031L29.9954 19.1483C29.9954 19.1483 32.43 20.2332 35.692 20.2332C40.5139 20.2332 44.2958 17.8512 44.2958 13.5588C44.2958 8.46461 37.2993 8.13443 37.2993 5.89392C37.2993 5.09205 38.2684 4.21944 40.2539 4.21944C42.4994 4.21944 44.3431 5.13922 44.3431 5.13922L45.2413 1.03556C45.2177 1.03556 43.2085 0.186523 40.3957 0.186523ZM0.118185 0.493119L0 1.10631C0 1.10631 1.84369 1.43649 3.52192 2.12043C5.67289 2.89872 5.81472 3.34682 6.19291 4.73829L10.1403 19.903H15.435L23.5425 0.493119H18.2714L13.0477 13.7003L10.9203 2.49778C10.7312 1.22423 9.73847 0.493119 8.50934 0.493119H0.118185ZM25.6698 0.493119L21.5334 19.903H26.5681L30.6809 0.493119H25.6698ZM53.7034 0.493119C52.4979 0.493119 51.8597 1.12989 51.387 2.26194L44.0122 19.903H49.2833L50.2997 16.9549H56.7289L57.3435 19.903H62L57.9581 0.493119H53.7034ZM54.3889 5.75241L55.9489 13.04H51.7652L54.3889 5.75241Z" fill="#1434CB"/>
</g>
<defs>
<clipPath id="clip0_205_744">
<rect width="62" height="20.0466" fill="white" transform="translate(0 0.186523)"/>
</clipPath>
</defs>
</svg>
